<svg width="13" height="13" viewBox="0 0 13 13" fill="none" xmlns="http://www.w3.org/2000/svg">
<path d="M12.6957 0.304348C12.4783 0.0869565 12.2174 0 11.913 0C11.6087 0 11.3478 0.0869565 11.1304 0.304348L6.47826 5L1.86957 0.391304C1.65217 0.173913 1.3913 0.0869565 1.08696 0.0869565C0.782609 0.0869565 0.521739 0.173913 0.304348 0.391304C0.0869565 0.608696 0 0.869565 0 1.17391C0 1.47826 0.0869565 1.73913 0.304348 1.95652L4.95652 6.52174L0.304348 11.1304C0.0869565 11.3478 0 11.6087 0 11.913C0 12.2174 0.0869565 12.4783 0.304348 12.6957C0.521739 12.913 0.782609 13 1.08696 13C1.3913 13 1.65217 12.913 1.86957 12.6957L6.47826 8.04348L11.087 12.6522C11.3043 12.8696 11.5652 12.9565 11.8696 12.9565C12.1739 12.9565 12.4348 12.8696 12.6522 12.6522C12.8696 12.4348 12.9565 12.1739 12.9565 11.8696C12.9565 11.5652 12.8696 11.3043 12.6522 11.087L8 6.52174L12.6957 1.86957C12.913 1.65217 13 1.3913 13 1.08696C13 0.782609 12.913 0.521739 12.6957 0.304348Z" fill="#C4C4C4"/>
</svg>
