<svg width="600" fill="none" height="400" xmlns="http://www.w3.org/2000/svg" viewBox="0 0 600 400">
 <rect width="600" rx="10" fill="black" height="400" fill-opacity="0.8"/>
 <path d="M365.48 112.812C368.33 112.812 371.002 113.347 373.496 114.417C375.989 115.486 378.163 116.947 380.015 118.801C381.868 120.654 383.328 122.829 384.397 125.324C385.466 127.819 386 130.492 386 133.344V174.406C386 182.89 384.397 190.874 381.191 198.359C377.984 205.845 373.567 212.368 367.938 217.928C362.309 223.489 355.79 227.873 348.38 231.081C340.97 234.289 332.99 235.929 324.44 236C314.18 236 304.632 234.04 295.798 230.119C286.963 226.198 278.911 220.637 271.644 213.437L221.199 162.964C219.204 160.968 217.672 158.651 216.603 156.014C215.534 153.376 215 150.667 215 147.887C215 144.893 215.57 142.112 216.71 139.546C217.85 136.979 219.382 134.698 221.306 132.702C223.229 130.706 225.474 129.209 228.039 128.211C230.604 127.213 233.382 126.643 236.375 126.5C242.218 126.5 247.241 128.603 251.444 132.809L262.88 144.144V108.214C258.676 106.218 254.9 103.723 251.551 100.729C248.202 97.7349 245.353 94.3486 243.001 90.5703C240.65 86.792 238.798 82.7285 237.444 78.3799C236.09 74.0312 235.449 69.54 235.52 64.9062C235.52 58.2764 236.767 52.0742 239.261 46.2998C241.754 40.5254 245.174 35.4282 249.521 31.0083C253.867 26.5884 258.926 23.1665 264.697 20.7427C270.468 18.3188 276.702 17.0713 283.4 17C290.026 17 296.225 18.2476 301.996 20.7427C307.768 23.2378 312.862 26.6597 317.279 31.0083C321.697 35.3569 325.117 40.4185 327.539 46.1929C329.962 51.9673 331.209 58.2051 331.28 64.9062C331.28 71.5361 329.962 77.8809 327.326 83.9404C324.689 90 320.949 95.311 316.104 99.8735C318.598 100.515 320.842 101.584 322.837 103.082C324.832 104.579 326.577 106.432 328.074 108.642C331.28 106.86 334.629 105.969 338.12 105.969C341.683 105.969 344.996 106.789 348.059 108.428C351.123 110.068 353.581 112.42 355.434 115.486C358.64 113.704 361.989 112.812 365.48 112.812ZM249.2 64.9062C249.2 70.2529 250.411 75.3501 252.834 80.1978C255.256 85.0454 258.605 89.0732 262.88 92.2812V64.9062C262.88 62.0547 263.414 59.3813 264.483 56.8862C265.552 54.3911 267.013 52.2168 268.865 50.3633C270.718 48.5098 272.891 47.0483 275.384 45.979C277.878 44.9097 280.55 44.375 283.4 44.375C286.25 44.375 288.922 44.9097 291.416 45.979C293.909 47.0483 296.083 48.5098 297.935 50.3633C299.787 52.2168 301.248 54.3911 302.317 56.8862C303.386 59.3813 303.92 62.0547 303.92 64.9062V92.2812C308.195 89.0732 311.544 85.0454 313.966 80.1978C316.389 75.3501 317.6 70.2529 317.6 64.9062C317.6 60.2012 316.709 55.7812 314.928 51.6465C313.147 47.5117 310.689 43.9116 307.554 40.8462C304.419 37.7808 300.785 35.3213 296.653 33.4678C292.52 31.6143 288.103 30.6875 283.4 30.6875C278.698 30.6875 274.28 31.5786 270.148 33.3608C266.015 35.1431 262.381 37.6025 259.246 40.7393C256.111 43.876 253.653 47.5117 251.872 51.6465C250.091 55.7812 249.2 60.2012 249.2 64.9062ZM372.32 133.344C372.32 131.49 371.643 129.886 370.289 128.532C368.936 127.177 367.333 126.5 365.48 126.5C363.058 126.5 361.383 127.177 360.457 128.532C359.531 129.886 358.961 131.562 358.747 133.558C358.533 135.554 358.497 137.764 358.64 140.188C358.783 142.611 358.783 144.786 358.64 146.71C358.497 148.635 357.928 150.346 356.93 151.843C355.933 153.34 354.223 154.018 351.8 153.875C349.164 153.875 347.383 153.055 346.456 151.416C345.53 149.776 344.96 147.637 344.746 145C344.533 142.362 344.604 139.617 344.96 136.766C345.316 133.914 345.387 131.169 345.174 128.532C344.96 125.894 344.426 123.791 343.571 122.223C342.716 120.654 340.899 119.799 338.12 119.656C335.698 119.656 334.023 120.333 333.097 121.688C332.171 123.042 331.601 124.718 331.387 126.714C331.173 128.71 331.138 130.92 331.28 133.344C331.423 135.768 331.423 137.942 331.28 139.867C331.138 141.792 330.568 143.502 329.57 145C328.573 146.497 326.863 147.174 324.44 147.031C321.804 147.031 320.022 146.211 319.096 144.572C318.17 142.932 317.6 140.793 317.386 138.156C317.173 135.518 317.244 132.773 317.6 129.922C317.956 127.07 318.028 124.326 317.814 121.688C317.6 119.05 317.066 116.947 316.211 115.379C315.356 113.811 313.539 112.955 310.76 112.812C308.338 112.812 306.663 113.49 305.737 114.844C304.811 116.199 304.241 117.874 304.027 119.87C303.813 121.866 303.778 124.076 303.92 126.5C304.062 128.924 304.062 131.098 303.92 133.023C303.778 134.948 303.208 136.659 302.21 138.156C301.213 139.653 299.503 140.33 297.08 140.188C295.228 140.188 293.624 139.51 292.271 138.156C290.917 136.801 290.24 135.197 290.24 133.344V64.9062C290.24 63.0527 289.563 61.4487 288.209 60.0942C286.856 58.7397 285.253 58.0625 283.4 58.0625C281.548 58.0625 279.944 58.7397 278.591 60.0942C277.237 61.4487 276.56 63.0527 276.56 64.9062V149.063C276.56 150.703 276.275 152.2 275.705 153.554C275.135 154.909 274.316 156.156 273.247 157.297C272.178 158.438 270.931 159.257 269.506 159.756C268.081 160.255 266.585 160.576 265.018 160.719C263.45 160.719 261.954 160.434 260.529 159.863C259.104 159.293 257.786 158.438 256.574 157.297L241.719 142.433C240.222 140.936 238.441 140.188 236.375 140.188C234.309 140.188 232.528 140.936 231.031 142.433C229.535 143.93 228.751 145.748 228.68 147.887C228.68 149.954 229.428 151.736 230.924 153.233L281.369 203.813C287.354 209.801 293.909 214.364 301.034 217.5C308.159 220.637 315.961 222.241 324.44 222.312C331.066 222.312 337.265 221.065 343.036 218.57C348.808 216.075 353.866 212.653 358.213 208.304C362.559 203.956 365.979 198.894 368.473 193.12C370.966 187.345 372.249 181.107 372.32 174.406V133.344Z" fill="white"/>
 <path d="M70.0633 327.192C68.7833 327.192 67.5993 326.984 66.5113 326.568C65.4393 326.136 64.5033 325.536 63.7033 324.768C62.9193 323.984 62.3033 323.072 61.8553 322.032C61.4073 320.992 61.1833 319.848 61.1833 318.6C61.1833 317.352 61.4073 316.208 61.8553 315.168C62.3033 314.128 62.9273 313.224 63.7273 312.456C64.5273 311.672 65.4633 311.072 66.5353 310.656C67.6233 310.224 68.8073 310.008 70.0873 310.008C71.3833 310.008 72.5753 310.232 73.6633 310.68C74.7673 311.112 75.7033 311.76 76.4713 312.624L74.9113 314.136C74.2713 313.464 73.5513 312.968 72.7513 312.648C71.9513 312.312 71.0953 312.144 70.1833 312.144C69.2393 312.144 68.3593 312.304 67.5433 312.624C66.7433 312.944 66.0473 313.392 65.4553 313.968C64.8633 314.544 64.3993 315.232 64.0633 316.032C63.7433 316.816 63.5833 317.672 63.5833 318.6C63.5833 319.528 63.7433 320.392 64.0633 321.192C64.3993 321.976 64.8633 322.656 65.4553 323.232C66.0473 323.808 66.7433 324.256 67.5433 324.576C68.3593 324.896 69.2393 325.056 70.1833 325.056C71.0953 325.056 71.9513 324.896 72.7513 324.576C73.5513 324.24 74.2713 323.728 74.9113 323.04L76.4713 324.552C75.7033 325.416 74.7673 326.072 73.6633 326.52C72.5753 326.968 71.3753 327.192 70.0633 327.192ZM91.943 310.2H94.343V327H91.943V310.2ZM82.295 327H79.895V310.2H82.295V327ZM92.159 319.512H82.055V317.424H92.159V319.512ZM96.8276 327L104.436 310.2H106.812L114.444 327H111.924L105.132 311.544H106.092L99.2996 327H96.8276ZM100.068 322.8L100.716 320.88H110.172L110.868 322.8H100.068ZM105.636 331.704C105.3 331.704 105.012 331.592 104.772 331.368C104.532 331.144 104.412 330.856 104.412 330.504C104.412 330.136 104.532 329.832 104.772 329.592C105.012 329.368 105.3 329.256 105.636 329.256C105.972 329.256 106.26 329.368 106.5 329.592C106.74 329.832 106.86 330.136 106.86 330.504C106.86 330.856 106.74 331.144 106.5 331.368C106.26 331.592 105.972 331.704 105.636 331.704ZM116.95 327V310.2H118.918L126.454 322.896H125.398L132.838 310.2H134.806L134.83 327H132.526L132.502 313.824H133.054L126.43 324.96H125.326L118.654 313.824H119.254V327H116.95ZM151.165 327L143.773 310.2H146.365L153.157 325.704H151.669L158.509 310.2H160.909L153.541 327H151.165ZM159.968 327L167.576 310.2H169.952L177.584 327H175.064L168.272 311.544H169.232L162.44 327H159.968ZM163.208 322.8L163.856 320.88H173.312L174.008 322.8H163.208ZM168.416 308.832L164.384 305.712H167.312L170.576 308.832H168.416ZM188.648 322.944L188.528 320.016L198.056 310.2H200.792L193.424 317.976L192.08 319.464L188.648 322.944ZM186.536 327V310.2H188.936V327H186.536ZM198.44 327L191.552 318.984L193.16 317.208L201.248 327H198.44ZM205.97 317.448H214.61V319.488H205.97V317.448ZM206.186 324.912H215.978V327H203.786V310.2H215.642V312.288H206.186V324.912ZM207.938 308.832L211.202 305.712H214.13L210.098 308.832H207.938ZM227.424 327.192C226.144 327.192 224.952 326.976 223.848 326.544C222.76 326.112 221.816 325.512 221.016 324.744C220.216 323.96 219.592 323.048 219.144 322.008C218.696 320.968 218.472 319.832 218.472 318.6C218.472 317.368 218.696 316.232 219.144 315.192C219.592 314.152 220.216 313.248 221.016 312.48C221.816 311.696 222.76 311.088 223.848 310.656C224.936 310.224 226.128 310.008 227.424 310.008C228.704 310.008 229.88 310.224 230.952 310.656C232.04 311.072 232.984 311.672 233.784 312.456C234.6 313.224 235.224 314.128 235.656 315.168C236.104 316.208 236.328 317.352 236.328 318.6C236.328 319.848 236.104 320.992 235.656 322.032C235.224 323.072 234.6 323.984 233.784 324.768C232.984 325.536 232.04 326.136 230.952 326.568C229.88 326.984 228.704 327.192 227.424 327.192ZM227.424 325.056C228.352 325.056 229.208 324.896 229.992 324.576C230.792 324.256 231.48 323.808 232.056 323.232C232.648 322.64 233.104 321.952 233.424 321.168C233.76 320.384 233.928 319.528 233.928 318.6C233.928 317.672 233.76 316.816 233.424 316.032C233.104 315.248 232.648 314.568 232.056 313.992C231.48 313.4 230.792 312.944 229.992 312.624C229.208 312.304 228.352 312.144 227.424 312.144C226.48 312.144 225.608 312.304 224.808 312.624C224.024 312.944 223.336 313.4 222.744 313.992C222.152 314.568 221.688 315.248 221.352 316.032C221.032 316.816 220.872 317.672 220.872 318.6C220.872 319.528 221.032 320.384 221.352 321.168C221.688 321.952 222.152 322.64 222.744 323.232C223.336 323.808 224.024 324.256 224.808 324.576C225.608 324.896 226.48 325.056 227.424 325.056ZM246.634 327V310.2H253.714C255.506 310.2 257.082 310.552 258.442 311.256C259.818 311.96 260.882 312.944 261.634 314.208C262.402 315.472 262.786 316.936 262.786 318.6C262.786 320.264 262.402 321.728 261.634 322.992C260.882 324.256 259.818 325.24 258.442 325.944C257.082 326.648 255.506 327 253.714 327H246.634ZM249.034 324.912H253.57C254.962 324.912 256.162 324.648 257.17 324.12C258.194 323.592 258.986 322.856 259.546 321.912C260.106 320.952 260.386 319.848 260.386 318.6C260.386 317.336 260.106 316.232 259.546 315.288C258.986 314.344 258.194 313.608 257.17 313.08C256.162 312.552 254.962 312.288 253.57 312.288H249.034V324.912ZM244.162 319.392V317.496H253.762V319.392H244.162ZM268.642 317.448H277.282V319.488H268.642V317.448ZM268.858 324.912H278.65V327H266.458V310.2H278.314V312.288H268.858V324.912ZM268.114 308.832L271.33 306.432H273.49L276.706 308.832H274.594L271.45 306.888H273.37L270.226 308.832H268.114ZM275.914 307.152L275.29 306.456C275.61 306.296 275.85 306.12 276.01 305.928C276.17 305.72 276.25 305.512 276.25 305.304C276.25 305.08 276.162 304.904 275.986 304.776C275.826 304.632 275.61 304.56 275.338 304.56C275.002 304.56 274.658 304.656 274.306 304.848L273.874 303.96C274.098 303.816 274.354 303.704 274.642 303.624C274.946 303.544 275.242 303.504 275.53 303.504C276.122 303.504 276.578 303.664 276.898 303.984C277.234 304.288 277.402 304.688 277.402 305.184C277.402 305.616 277.266 306.008 276.994 306.36C276.722 306.712 276.362 306.976 275.914 307.152ZM292.317 327V312.288H286.557V310.2H300.453V312.288H294.693V327H292.317ZM315.115 310.2H317.515V327H315.115V310.2ZM305.467 327H303.067V310.2H305.467V327ZM315.331 319.512H305.227V317.424H315.331V319.512ZM319.999 327L327.607 310.2H329.983L337.615 327H335.095L328.303 311.544H329.263L322.471 327H319.999ZM323.239 322.8L323.887 320.88H333.343L334.039 322.8H323.239ZM343.17 327V320.568L343.722 322.056L336.498 310.2H339.066L345.138 320.208H343.746L349.842 310.2H352.218L345.018 322.056L345.546 320.568V327H343.17ZM361.29 327V310.2H368.37C370.162 310.2 371.738 310.552 373.098 311.256C374.474 311.96 375.538 312.944 376.29 314.208C377.058 315.472 377.442 316.936 377.442 318.6C377.442 320.264 377.058 321.728 376.29 322.992C375.538 324.256 374.474 325.24 373.098 325.944C371.738 326.648 370.162 327 368.37 327H361.29ZM363.69 324.912H368.226C369.618 324.912 370.818 324.648 371.826 324.12C372.85 323.592 373.642 322.856 374.202 321.912C374.762 320.952 375.042 319.848 375.042 318.6C375.042 317.336 374.762 316.232 374.202 315.288C373.642 314.344 372.85 313.608 371.826 313.08C370.818 312.552 369.618 312.288 368.226 312.288H363.69V324.912ZM358.818 319.392V317.496H368.418V319.392H358.818ZM388.698 327.192C387.418 327.192 386.226 326.976 385.122 326.544C384.034 326.112 383.09 325.512 382.29 324.744C381.49 323.96 380.866 323.048 380.418 322.008C379.97 320.968 379.746 319.832 379.746 318.6C379.746 317.368 379.97 316.232 380.418 315.192C380.866 314.152 381.49 313.248 382.29 312.48C383.09 311.696 384.034 311.088 385.122 310.656C386.21 310.224 387.402 310.008 388.698 310.008C389.978 310.008 391.154 310.224 392.226 310.656C393.314 311.072 394.258 311.672 395.058 312.456C395.874 313.224 396.498 314.128 396.93 315.168C397.378 316.208 397.602 317.352 397.602 318.6C397.602 319.848 397.378 320.992 396.93 322.032C396.498 323.072 395.874 323.984 395.058 324.768C394.258 325.536 393.314 326.136 392.226 326.568C391.154 326.984 389.978 327.192 388.698 327.192ZM388.698 325.056C389.626 325.056 390.482 324.896 391.266 324.576C392.066 324.256 392.754 323.808 393.33 323.232C393.922 322.64 394.378 321.952 394.698 321.168C395.034 320.384 395.202 319.528 395.202 318.6C395.202 317.672 395.034 316.816 394.698 316.032C394.378 315.248 393.922 314.568 393.33 313.992C392.754 313.4 392.066 312.944 391.266 312.624C390.482 312.304 389.626 312.144 388.698 312.144C387.754 312.144 386.882 312.304 386.082 312.624C385.298 312.944 384.61 313.4 384.018 313.992C383.426 314.568 382.962 315.248 382.626 316.032C382.306 316.816 382.146 317.672 382.146 318.6C382.146 319.528 382.306 320.384 382.626 321.168C382.962 321.952 383.426 322.64 384.018 323.232C384.61 323.808 385.298 324.256 386.082 324.576C386.882 324.896 387.754 325.056 388.698 325.056ZM384.402 308.832L387.618 306.432H389.778L392.994 308.832H390.882L387.738 306.888H389.658L386.514 308.832H384.402ZM392.202 307.152L391.578 306.456C391.898 306.296 392.138 306.12 392.298 305.928C392.458 305.72 392.538 305.512 392.538 305.304C392.538 305.08 392.45 304.904 392.274 304.776C392.114 304.632 391.898 304.56 391.626 304.56C391.29 304.56 390.946 304.656 390.594 304.848L390.162 303.96C390.386 303.816 390.642 303.704 390.93 303.624C391.234 303.544 391.53 303.504 391.818 303.504C392.41 303.504 392.866 303.664 393.186 303.984C393.522 304.288 393.69 304.688 393.69 305.184C393.69 305.616 393.554 306.008 393.282 306.36C393.01 306.712 392.65 306.976 392.202 307.152ZM401.27 327V310.2H403.67V327H401.27ZM422.729 327.192C421.433 327.192 420.241 326.984 419.153 326.568C418.065 326.136 417.121 325.536 416.321 324.768C415.521 323.984 414.897 323.072 414.449 322.032C414.001 320.992 413.777 319.848 413.777 318.6C413.777 317.352 414.001 316.208 414.449 315.168C414.897 314.128 415.521 313.224 416.321 312.456C417.137 311.672 418.089 311.072 419.177 310.656C420.265 310.224 421.465 310.008 422.777 310.008C424.105 310.008 425.321 310.224 426.425 310.656C427.529 311.088 428.465 311.736 429.233 312.6L427.745 314.088C427.057 313.416 426.305 312.928 425.489 312.624C424.689 312.304 423.817 312.144 422.873 312.144C421.913 312.144 421.017 312.304 420.185 312.624C419.369 312.944 418.657 313.392 418.049 313.968C417.457 314.544 416.993 315.232 416.657 316.032C416.337 316.816 416.177 317.672 416.177 318.6C416.177 319.512 416.337 320.368 416.657 321.168C416.993 321.952 417.457 322.64 418.049 323.232C418.657 323.808 419.369 324.256 420.185 324.576C421.001 324.896 421.889 325.056 422.849 325.056C423.745 325.056 424.601 324.92 425.417 324.648C426.249 324.36 427.017 323.888 427.721 323.232L429.089 325.056C428.257 325.76 427.281 326.296 426.161 326.664C425.057 327.016 423.913 327.192 422.729 327.192ZM426.785 324.744V318.504H429.089V325.056L426.785 324.744ZM441.268 327.192C439.988 327.192 438.796 326.976 437.692 326.544C436.604 326.112 435.66 325.512 434.86 324.744C434.06 323.96 433.436 323.048 432.988 322.008C432.54 320.968 432.316 319.832 432.316 318.6C432.316 317.368 432.54 316.232 432.988 315.192C433.436 314.152 434.06 313.248 434.86 312.48C435.66 311.696 436.604 311.088 437.692 310.656C438.78 310.224 439.972 310.008 441.268 310.008C442.548 310.008 443.724 310.224 444.796 310.656C445.884 311.072 446.828 311.672 447.628 312.456C448.444 313.224 449.068 314.128 449.5 315.168C449.948 316.208 450.172 317.352 450.172 318.6C450.172 319.848 449.948 320.992 449.5 322.032C449.068 323.072 448.444 323.984 447.628 324.768C446.828 325.536 445.884 326.136 444.796 326.568C443.724 326.984 442.548 327.192 441.268 327.192ZM441.268 325.056C442.196 325.056 443.052 324.896 443.836 324.576C444.636 324.256 445.324 323.808 445.9 323.232C446.492 322.64 446.948 321.952 447.268 321.168C447.604 320.384 447.772 319.528 447.772 318.6C447.772 317.672 447.604 316.816 447.268 316.032C446.948 315.248 446.492 314.568 445.9 313.992C445.324 313.4 444.636 312.944 443.836 312.624C443.052 312.304 442.196 312.144 441.268 312.144C440.324 312.144 439.452 312.304 438.652 312.624C437.868 312.944 437.18 313.4 436.588 313.992C435.996 314.568 435.532 315.248 435.196 316.032C434.876 316.816 434.716 317.672 434.716 318.6C434.716 319.528 434.876 320.384 435.196 321.168C435.532 321.952 435.996 322.64 436.588 323.232C437.18 323.808 437.868 324.256 438.652 324.576C439.452 324.896 440.324 325.056 441.268 325.056ZM439.468 308.832L442.732 305.712H445.66L441.628 308.832H439.468ZM461.352 327.192C460.072 327.192 458.888 326.984 457.8 326.568C456.728 326.136 455.792 325.536 454.992 324.768C454.208 323.984 453.592 323.072 453.144 322.032C452.696 320.992 452.472 319.848 452.472 318.6C452.472 317.352 452.696 316.208 453.144 315.168C453.592 314.128 454.216 313.224 455.016 312.456C455.816 311.672 456.752 311.072 457.824 310.656C458.912 310.224 460.096 310.008 461.376 310.008C462.672 310.008 463.864 310.232 464.952 310.68C466.056 311.112 466.992 311.76 467.76 312.624L466.2 314.136C465.56 313.464 464.84 312.968 464.04 312.648C463.24 312.312 462.384 312.144 461.472 312.144C460.528 312.144 459.648 312.304 458.832 312.624C458.032 312.944 457.336 313.392 456.744 313.968C456.152 314.544 455.688 315.232 455.352 316.032C455.032 316.816 454.872 317.672 454.872 318.6C454.872 319.528 455.032 320.392 455.352 321.192C455.688 321.976 456.152 322.656 456.744 323.232C457.336 323.808 458.032 324.256 458.832 324.576C459.648 324.896 460.528 325.056 461.472 325.056C462.384 325.056 463.24 324.896 464.04 324.576C464.84 324.24 465.56 323.728 466.2 323.04L467.76 324.552C466.992 325.416 466.056 326.072 464.952 326.52C463.864 326.968 462.664 327.192 461.352 327.192ZM477.629 327V310.2H479.597L490.709 324H489.677V310.2H492.077V327H490.109L478.997 313.2H480.029V327H477.629ZM509.154 310.2H511.554V327H509.154V310.2ZM499.506 327H497.106V310.2H499.506V327ZM509.37 319.512H499.266V317.424H509.37V319.512ZM516.583 327V310.2H518.983V327H516.583ZM517.423 308.832L513.39 305.712H516.319L519.583 308.832H517.423ZM524.012 327V310.2H525.98L537.092 324H536.06V310.2H538.46V327H536.492L525.38 313.2H526.412V327H524.012Z" fill="white"/>
</svg>
