<svg width="600" fill="none" height="400" xmlns="http://www.w3.org/2000/svg" viewBox="0 0 600 400">
 <rect width="600" rx="10" fill="black" height="400" fill-opacity="0.8"/>
 <path d="M65.2505 330V313.2H67.2185L78.3305 327H77.2985V313.2H79.6985V330H77.7305L66.6185 316.2H67.6505V330H65.2505ZM96.775 313.2H99.175V330H96.775V313.2ZM87.127 330H84.727V313.2H87.127V330ZM96.991 322.512H86.887V320.424H96.991V322.512ZM101.66 330L109.268 313.2H111.644L119.276 330H116.756L109.964 314.544H110.924L104.132 330H101.66ZM104.9 325.8L105.548 323.88H115.004L115.7 325.8H104.9ZM106.172 311.832L109.388 309.432H111.548L114.764 311.832H112.652L109.508 309.888H111.428L108.284 311.832H106.172ZM112.844 309.72L115.676 307.008H118.292L114.74 309.72H112.844ZM121.782 330V313.2H128.334C129.806 313.2 131.062 313.432 132.102 313.896C133.142 314.36 133.942 315.032 134.502 315.912C135.062 316.792 135.342 317.84 135.342 319.056C135.342 320.272 135.062 321.32 134.502 322.2C133.942 323.064 133.142 323.736 132.102 324.216C131.062 324.68 129.806 324.912 128.334 324.912H123.102L124.182 323.784V330H121.782ZM124.182 324.024L123.102 322.824H128.262C129.798 322.824 130.958 322.496 131.742 321.84C132.542 321.184 132.942 320.256 132.942 319.056C132.942 317.856 132.542 316.928 131.742 316.272C130.958 315.616 129.798 315.288 128.262 315.288H123.102L124.182 314.088V324.024ZM150.395 330L143.003 313.2H145.595L152.387 328.704H150.899L157.739 313.2H160.139L152.771 330H150.395ZM159.199 330L166.807 313.2H169.183L176.815 330H174.295L167.503 314.544H168.463L161.671 330H159.199ZM162.439 325.8L163.087 323.88H172.543L173.239 325.8H162.439ZM167.647 311.832L163.615 308.712H166.543L169.807 311.832H167.647ZM187.878 325.944L187.758 323.016L197.286 313.2H200.022L192.654 320.976L191.31 322.464L187.878 325.944ZM185.766 330V313.2H188.166V330H185.766ZM197.67 330L190.782 321.984L192.39 320.208L200.478 330H197.67ZM205.2 320.448H213.84V322.488H205.2V320.448ZM205.416 327.912H215.208V330H203.016V313.2H214.872V315.288H205.416V327.912ZM207.168 311.832L210.432 308.712H213.36L209.328 311.832H207.168ZM226.655 330.192C225.375 330.192 224.183 329.976 223.079 329.544C221.991 329.112 221.047 328.512 220.247 327.744C219.447 326.96 218.823 326.048 218.375 325.008C217.927 323.968 217.703 322.832 217.703 321.6C217.703 320.368 217.927 319.232 218.375 318.192C218.823 317.152 219.447 316.248 220.247 315.48C221.047 314.696 221.991 314.088 223.079 313.656C224.167 313.224 225.359 313.008 226.655 313.008C227.935 313.008 229.111 313.224 230.183 313.656C231.271 314.072 232.215 314.672 233.015 315.456C233.831 316.224 234.455 317.128 234.887 318.168C235.335 319.208 235.559 320.352 235.559 321.6C235.559 322.848 235.335 323.992 234.887 325.032C234.455 326.072 233.831 326.984 233.015 327.768C232.215 328.536 231.271 329.136 230.183 329.568C229.111 329.984 227.935 330.192 226.655 330.192ZM226.655 328.056C227.583 328.056 228.439 327.896 229.223 327.576C230.023 327.256 230.711 326.808 231.287 326.232C231.879 325.64 232.335 324.952 232.655 324.168C232.991 323.384 233.159 322.528 233.159 321.6C233.159 320.672 232.991 319.816 232.655 319.032C232.335 318.248 231.879 317.568 231.287 316.992C230.711 316.4 230.023 315.944 229.223 315.624C228.439 315.304 227.583 315.144 226.655 315.144C225.711 315.144 224.839 315.304 224.039 315.624C223.255 315.944 222.567 316.4 221.975 316.992C221.383 317.568 220.919 318.248 220.583 319.032C220.263 319.816 220.103 320.672 220.103 321.6C220.103 322.528 220.263 323.384 220.583 324.168C220.919 324.952 221.383 325.64 221.975 326.232C222.567 326.808 223.255 327.256 224.039 327.576C224.839 327.896 225.711 328.056 226.655 328.056ZM253.184 330.192C251.904 330.192 250.72 329.984 249.632 329.568C248.56 329.136 247.624 328.536 246.824 327.768C246.04 326.984 245.424 326.072 244.976 325.032C244.528 323.992 244.304 322.848 244.304 321.6C244.304 320.352 244.528 319.208 244.976 318.168C245.424 317.128 246.048 316.224 246.848 315.456C247.648 314.672 248.584 314.072 249.656 313.656C250.744 313.224 251.928 313.008 253.208 313.008C254.504 313.008 255.696 313.232 256.784 313.68C257.888 314.112 258.824 314.76 259.592 315.624L258.032 317.136C257.392 316.464 256.672 315.968 255.872 315.648C255.072 315.312 254.216 315.144 253.304 315.144C252.36 315.144 251.48 315.304 250.664 315.624C249.864 315.944 249.168 316.392 248.576 316.968C247.984 317.544 247.52 318.232 247.184 319.032C246.864 319.816 246.704 320.672 246.704 321.6C246.704 322.528 246.864 323.392 247.184 324.192C247.52 324.976 247.984 325.656 248.576 326.232C249.168 326.808 249.864 327.256 250.664 327.576C251.48 327.896 252.36 328.056 253.304 328.056C254.216 328.056 255.072 327.896 255.872 327.576C256.672 327.24 257.392 326.728 258.032 326.04L259.592 327.552C258.824 328.416 257.888 329.072 256.784 329.52C255.696 329.968 254.496 330.192 253.184 330.192ZM275.064 313.2H277.464V330H275.064V313.2ZM265.416 330H263.016V313.2H265.416V330ZM275.28 322.512H265.176V320.424H275.28V322.512ZM289.453 330.192C287.245 330.192 285.509 329.56 284.245 328.296C282.981 327.032 282.349 325.184 282.349 322.752V313.2H284.749V322.656C284.749 324.528 285.157 325.896 285.973 326.76C286.805 327.624 287.973 328.056 289.477 328.056C290.997 328.056 292.165 327.624 292.981 326.76C293.813 325.896 294.229 324.528 294.229 322.656V313.2H296.557V322.752C296.557 325.184 295.925 327.032 294.661 328.296C293.413 329.56 291.677 330.192 289.453 330.192ZM309.061 330.192C307.781 330.192 306.589 329.976 305.485 329.544C304.397 329.112 303.453 328.512 302.653 327.744C301.853 326.96 301.229 326.048 300.781 325.008C300.333 323.968 300.109 322.832 300.109 321.6C300.109 320.368 300.333 319.232 300.781 318.192C301.229 317.152 301.853 316.248 302.653 315.48C303.453 314.696 304.397 314.088 305.485 313.656C306.573 313.224 307.765 313.008 309.061 313.008C310.341 313.008 311.517 313.224 312.589 313.656C313.677 314.072 314.621 314.672 315.421 315.456C316.237 316.224 316.861 317.128 317.293 318.168C317.741 319.208 317.965 320.352 317.965 321.6C317.965 322.848 317.741 323.992 317.293 325.032C316.861 326.072 316.237 326.984 315.421 327.768C314.621 328.536 313.677 329.136 312.589 329.568C311.517 329.984 310.341 330.192 309.061 330.192ZM309.061 328.056C309.989 328.056 310.845 327.896 311.629 327.576C312.429 327.256 313.117 326.808 313.693 326.232C314.285 325.64 314.741 324.952 315.061 324.168C315.397 323.384 315.565 322.528 315.565 321.6C315.565 320.672 315.397 319.816 315.061 319.032C314.741 318.248 314.285 317.568 313.693 316.992C313.117 316.4 312.429 315.944 311.629 315.624C310.845 315.304 309.989 315.144 309.061 315.144C308.117 315.144 307.245 315.304 306.445 315.624C305.661 315.944 304.973 316.4 304.381 316.992C303.789 317.568 303.325 318.248 302.989 319.032C302.669 319.816 302.509 320.672 302.509 321.6C302.509 322.528 302.669 323.384 302.989 324.168C303.325 324.952 303.789 325.64 304.381 326.232C304.973 326.808 305.661 327.256 306.445 327.576C307.245 327.896 308.117 328.056 309.061 328.056ZM309.061 334.704C308.725 334.704 308.437 334.592 308.197 334.368C307.957 334.144 307.837 333.856 307.837 333.504C307.837 333.136 307.957 332.832 308.197 332.592C308.437 332.368 308.725 332.256 309.061 332.256C309.397 332.256 309.685 332.368 309.925 332.592C310.165 332.832 310.285 333.136 310.285 333.504C310.285 333.856 310.165 334.144 309.925 334.368C309.685 334.592 309.397 334.704 309.061 334.704ZM304.765 311.832L307.957 308.712H310.165L313.357 311.832H311.269L308.101 309.192H310.021L306.853 311.832H304.765ZM324.735 330V315.288H318.975V313.2H332.871V315.288H327.111V330H324.735ZM353.978 313.2H356.378V330H353.978V313.2ZM344.33 330H341.93V313.2H344.33V330ZM354.194 322.512H344.09V320.424H354.194V322.512ZM368.991 330.192C367.711 330.192 366.519 329.976 365.415 329.544C364.327 329.112 363.383 328.512 362.583 327.744C361.783 326.96 361.159 326.048 360.711 325.008C360.263 323.968 360.039 322.832 360.039 321.6C360.039 320.368 360.263 319.232 360.711 318.192C361.159 317.152 361.783 316.248 362.583 315.48C363.383 314.696 364.327 314.088 365.415 313.656C366.503 313.224 367.695 313.008 368.991 313.008C370.271 313.008 371.447 313.224 372.519 313.656C373.607 314.072 374.551 314.672 375.351 315.456C376.167 316.224 376.791 317.128 377.223 318.168C377.671 319.208 377.895 320.352 377.895 321.6C377.895 322.848 377.671 323.992 377.223 325.032C376.791 326.072 376.167 326.984 375.351 327.768C374.551 328.536 373.607 329.136 372.519 329.568C371.447 329.984 370.271 330.192 368.991 330.192ZM368.991 328.056C369.919 328.056 370.775 327.896 371.559 327.576C372.359 327.256 373.047 326.808 373.623 326.232C374.215 325.64 374.671 324.952 374.991 324.168C375.327 323.384 375.495 322.528 375.495 321.6C375.495 320.672 375.327 319.816 374.991 319.032C374.671 318.248 374.215 317.568 373.623 316.992C373.047 316.4 372.359 315.944 371.559 315.624C370.775 315.304 369.919 315.144 368.991 315.144C368.047 315.144 367.175 315.304 366.375 315.624C365.591 315.944 364.903 316.4 364.311 316.992C363.719 317.568 363.255 318.248 362.919 319.032C362.599 319.816 362.439 320.672 362.439 321.6C362.439 322.528 362.599 323.384 362.919 324.168C363.255 324.952 363.719 325.64 364.311 326.232C364.903 326.808 365.591 327.256 366.375 327.576C367.175 327.896 368.047 328.056 368.991 328.056ZM378.785 330L386.393 313.2H388.769L396.401 330H393.881L387.089 314.544H388.049L381.257 330H378.785ZM382.025 325.8L382.673 323.88H392.129L392.825 325.8H382.025ZM387.593 334.704C387.257 334.704 386.969 334.592 386.729 334.368C386.489 334.144 386.369 333.856 386.369 333.504C386.369 333.136 386.489 332.832 386.729 332.592C386.969 332.368 387.257 332.256 387.593 332.256C387.929 332.256 388.217 332.368 388.457 332.592C388.697 332.832 388.817 333.136 388.817 333.504C388.817 333.856 388.697 334.144 388.457 334.368C388.217 334.592 387.929 334.704 387.593 334.704ZM387.593 311.976C386.505 311.976 385.593 311.688 384.857 311.112C384.121 310.52 383.737 309.72 383.705 308.712H385.265C385.297 309.304 385.537 309.776 385.985 310.128C386.433 310.464 386.969 310.632 387.593 310.632C388.217 310.632 388.753 310.464 389.201 310.128C389.665 309.776 389.905 309.304 389.921 308.712H391.481C391.449 309.72 391.065 310.52 390.329 311.112C389.593 311.688 388.681 311.976 387.593 311.976ZM406.184 330.192C404.904 330.192 403.72 329.984 402.632 329.568C401.56 329.136 400.624 328.536 399.824 327.768C399.04 326.984 398.424 326.072 397.976 325.032C397.528 323.992 397.304 322.848 397.304 321.6C397.304 320.352 397.528 319.208 397.976 318.168C398.424 317.128 399.048 316.224 399.848 315.456C400.648 314.672 401.584 314.072 402.656 313.656C403.744 313.224 404.928 313.008 406.208 313.008C407.504 313.008 408.696 313.232 409.784 313.68C410.888 314.112 411.824 314.76 412.592 315.624L411.032 317.136C410.392 316.464 409.672 315.968 408.872 315.648C408.072 315.312 407.216 315.144 406.304 315.144C405.36 315.144 404.48 315.304 403.664 315.624C402.864 315.944 402.168 316.392 401.576 316.968C400.984 317.544 400.52 318.232 400.184 319.032C399.864 319.816 399.704 320.672 399.704 321.6C399.704 322.528 399.864 323.392 400.184 324.192C400.52 324.976 400.984 325.656 401.576 326.232C402.168 326.808 402.864 327.256 403.664 327.576C404.48 327.896 405.36 328.056 406.304 328.056C407.216 328.056 408.072 327.896 408.872 327.576C409.672 327.24 410.392 326.728 411.032 326.04L412.592 327.552C411.824 328.416 410.888 329.072 409.784 329.52C408.696 329.968 407.496 330.192 406.184 330.192ZM427.357 330.192C426.077 330.192 424.853 330 423.685 329.616C422.517 329.216 421.597 328.704 420.925 328.08L421.813 326.208C422.453 326.768 423.269 327.232 424.261 327.6C425.253 327.968 426.285 328.152 427.357 328.152C428.333 328.152 429.125 328.04 429.733 327.816C430.341 327.592 430.789 327.288 431.077 326.904C431.365 326.504 431.509 326.056 431.509 325.56C431.509 324.984 431.317 324.52 430.933 324.168C430.565 323.816 430.077 323.536 429.469 323.328C428.877 323.104 428.221 322.912 427.501 322.752C426.781 322.592 426.053 322.408 425.317 322.2C424.597 321.976 423.933 321.696 423.325 321.36C422.733 321.024 422.253 320.576 421.885 320.016C421.517 319.44 421.333 318.704 421.333 317.808C421.333 316.944 421.557 316.152 422.005 315.432C422.469 314.696 423.173 314.112 424.117 313.68C425.077 313.232 426.293 313.008 427.765 313.008C428.741 313.008 429.709 313.136 430.669 313.392C431.629 313.648 432.461 314.016 433.165 314.496L432.373 316.416C431.653 315.936 430.893 315.592 430.093 315.384C429.293 315.16 428.517 315.048 427.765 315.048C426.821 315.048 426.045 315.168 425.437 315.408C424.829 315.648 424.381 315.968 424.093 316.368C423.821 316.768 423.685 317.216 423.685 317.712C423.685 318.304 423.869 318.776 424.237 319.128C424.621 319.48 425.109 319.76 425.701 319.968C426.309 320.176 426.973 320.368 427.693 320.544C428.413 320.704 429.133 320.888 429.853 321.096C430.589 321.304 431.253 321.576 431.845 321.912C432.453 322.248 432.941 322.696 433.309 323.256C433.677 323.816 433.861 324.536 433.861 325.416C433.861 326.264 433.629 327.056 433.165 327.792C432.701 328.512 431.981 329.096 431.005 329.544C430.045 329.976 428.829 330.192 427.357 330.192ZM444.328 330.192C442.12 330.192 440.384 329.56 439.12 328.296C437.856 327.032 437.224 325.184 437.224 322.752V313.2H439.624V322.656C439.624 324.528 440.032 325.896 440.848 326.76C441.68 327.624 442.848 328.056 444.352 328.056C445.872 328.056 447.04 327.624 447.856 326.76C448.688 325.896 449.104 324.528 449.104 322.656V313.2H451.432V322.752C451.432 325.184 450.8 327.032 449.536 328.296C448.288 329.56 446.552 330.192 444.328 330.192ZM450.256 314.952V313.2H450.688C451.216 313.2 451.6 313.056 451.84 312.768C452.096 312.464 452.224 312.088 452.224 311.64C452.224 311.336 452.176 311.056 452.08 310.8C452 310.544 451.888 310.32 451.744 310.128L453.208 309.576C453.432 309.848 453.6 310.168 453.712 310.536C453.824 310.904 453.88 311.296 453.88 311.712C453.88 312.672 453.6 313.456 453.04 314.064C452.48 314.656 451.696 314.952 450.688 314.952H450.256ZM444.808 312.048L444.016 311.112C444.48 310.888 444.816 310.648 445.024 310.392C445.248 310.12 445.36 309.824 445.36 309.504C445.36 309.168 445.248 308.896 445.024 308.688C444.8 308.48 444.496 308.376 444.112 308.376C443.616 308.376 443.136 308.528 442.672 308.832L442.144 307.752C442.448 307.528 442.792 307.36 443.176 307.248C443.576 307.136 443.96 307.08 444.328 307.08C445.064 307.08 445.656 307.288 446.104 307.704C446.552 308.104 446.776 308.64 446.776 309.312C446.776 309.904 446.616 310.432 446.296 310.896C445.976 311.344 445.48 311.728 444.808 312.048ZM462.961 330V313.2H470.041C471.833 313.2 473.409 313.552 474.769 314.256C476.145 314.96 477.209 315.944 477.961 317.208C478.729 318.472 479.113 319.936 479.113 321.6C479.113 323.264 478.729 324.728 477.961 325.992C477.209 327.256 476.145 328.24 474.769 328.944C473.409 329.648 471.833 330 470.041 330H462.961ZM465.361 327.912H469.897C471.289 327.912 472.489 327.648 473.497 327.12C474.521 326.592 475.313 325.856 475.873 324.912C476.433 323.952 476.713 322.848 476.713 321.6C476.713 320.336 476.433 319.232 475.873 318.288C475.313 317.344 474.521 316.608 473.497 316.08C472.489 315.552 471.289 315.288 469.897 315.288H465.361V327.912ZM489.75 330.192C487.542 330.192 485.806 329.56 484.542 328.296C483.278 327.032 482.646 325.184 482.646 322.752V313.2H485.046V322.656C485.046 324.528 485.454 325.896 486.27 326.76C487.102 327.624 488.27 328.056 489.774 328.056C491.294 328.056 492.462 327.624 493.278 326.76C494.11 325.896 494.526 324.528 494.526 322.656V313.2H496.854V322.752C496.854 325.184 496.222 327.032 494.958 328.296C493.71 329.56 491.974 330.192 489.75 330.192ZM489.774 334.704C489.438 334.704 489.15 334.592 488.91 334.368C488.67 334.144 488.55 333.856 488.55 333.504C488.55 333.136 488.67 332.832 488.91 332.592C489.15 332.368 489.438 332.256 489.774 332.256C490.11 332.256 490.398 332.368 490.638 332.592C490.878 332.832 490.998 333.136 490.998 333.504C490.998 333.856 490.878 334.144 490.638 334.368C490.398 334.592 490.11 334.704 489.774 334.704ZM501.774 330V313.2H503.742L514.854 327H513.822V313.2H516.222V330H514.254L503.142 316.2H504.174V330H501.774ZM528.834 330.192C527.538 330.192 526.346 329.984 525.258 329.568C524.17 329.136 523.226 328.536 522.426 327.768C521.626 326.984 521.002 326.072 520.554 325.032C520.106 323.992 519.882 322.848 519.882 321.6C519.882 320.352 520.106 319.208 520.554 318.168C521.002 317.128 521.626 316.224 522.426 315.456C523.242 314.672 524.194 314.072 525.282 313.656C526.37 313.224 527.57 313.008 528.882 313.008C530.21 313.008 531.426 313.224 532.53 313.656C533.634 314.088 534.57 314.736 535.338 315.6L533.85 317.088C533.162 316.416 532.41 315.928 531.594 315.624C530.794 315.304 529.922 315.144 528.978 315.144C528.018 315.144 527.122 315.304 526.29 315.624C525.474 315.944 524.762 316.392 524.154 316.968C523.562 317.544 523.098 318.232 522.762 319.032C522.442 319.816 522.282 320.672 522.282 321.6C522.282 322.512 522.442 323.368 522.762 324.168C523.098 324.952 523.562 325.64 524.154 326.232C524.762 326.808 525.474 327.256 526.29 327.576C527.106 327.896 527.994 328.056 528.954 328.056C529.85 328.056 530.706 327.92 531.522 327.648C532.354 327.36 533.122 326.888 533.826 326.232L535.194 328.056C534.362 328.76 533.386 329.296 532.266 329.664C531.162 330.016 530.018 330.192 528.834 330.192ZM532.89 327.744V321.504H535.194V328.056L532.89 327.744ZM86.4848 359V342.2H94.0208C95.9568 342.2 97.4448 342.592 98.4848 343.376C99.5248 344.144 100.045 345.2 100.045 346.544C100.045 347.456 99.8368 348.224 99.4208 348.848C99.0208 349.472 98.4768 349.952 97.7888 350.288C97.1008 350.624 96.3568 350.792 95.5568 350.792L95.9888 350.072C96.9488 350.072 97.7968 350.24 98.5328 350.576C99.2688 350.912 99.8528 351.408 100.285 352.064C100.717 352.704 100.933 353.504 100.933 354.464C100.933 355.904 100.389 357.024 99.3008 357.824C98.2288 358.608 96.6288 359 94.5008 359H86.4848ZM88.8848 357.056H94.4048C95.7328 357.056 96.7488 356.832 97.4528 356.384C98.1568 355.936 98.5088 355.232 98.5088 354.272C98.5088 353.296 98.1568 352.584 97.4528 352.136C96.7488 351.688 95.7328 351.464 94.4048 351.464H88.6688V349.52H93.8048C95.0208 349.52 95.9648 349.296 96.6368 348.848C97.3088 348.4 97.6448 347.728 97.6448 346.832C97.6448 345.936 97.3088 345.264 96.6368 344.816C95.9648 344.368 95.0208 344.144 93.8048 344.144H88.8848V357.056ZM102.105 359L109.713 342.2H112.089L119.721 359H117.201L110.409 343.544H111.369L104.577 359H102.105ZM105.345 354.8L105.993 352.88H115.449L116.145 354.8H105.345ZM110.553 340.832L106.521 337.712H109.449L112.713 340.832H110.553ZM122.227 359V342.2H124.195L135.307 356H134.275V342.2H136.675V359H134.707L123.595 345.2H124.627V359H122.227ZM148.149 359V342.2H154.701C156.173 342.2 157.429 342.432 158.469 342.896C159.509 343.36 160.309 344.032 160.869 344.912C161.429 345.792 161.709 346.84 161.709 348.056C161.709 349.272 161.429 350.32 160.869 351.2C160.309 352.064 159.509 352.736 158.469 353.216C157.429 353.68 156.173 353.912 154.701 353.912H149.469L150.549 352.784V359H148.149ZM150.549 353.024L149.469 351.824H154.629C156.165 351.824 157.325 351.496 158.109 350.84C158.909 350.184 159.309 349.256 159.309 348.056C159.309 346.856 158.909 345.928 158.109 345.272C157.325 344.616 156.165 344.288 154.629 344.288H149.469L150.549 343.088V353.024ZM177.283 342.2H179.683V359H177.283V342.2ZM167.635 359H165.235V342.2H167.635V359ZM177.499 351.512H167.395V349.424H177.499V351.512ZM184.711 359V342.2H187.111V359H184.711ZM184.111 340.832L187.375 337.712H190.303L186.271 340.832H184.111ZM192.141 359V342.2H194.109L201.645 354.896H200.589L208.029 342.2H209.997L210.021 359H207.717L207.693 345.824H208.245L201.621 356.96H200.517L193.845 345.824H194.445V359H192.141ZM221.7 359V342.2H228.78C230.572 342.2 232.148 342.552 233.508 343.256C234.884 343.96 235.948 344.944 236.7 346.208C237.468 347.472 237.852 348.936 237.852 350.6C237.852 352.264 237.468 353.728 236.7 354.992C235.948 356.256 234.884 357.24 233.508 357.944C232.148 358.648 230.572 359 228.78 359H221.7ZM224.1 356.912H228.636C230.028 356.912 231.228 356.648 232.236 356.12C233.26 355.592 234.052 354.856 234.612 353.912C235.172 352.952 235.452 351.848 235.452 350.6C235.452 349.336 235.172 348.232 234.612 347.288C234.052 346.344 233.26 345.608 232.236 345.08C231.228 344.552 230.028 344.288 228.636 344.288H224.1V356.912ZM219.228 351.392V349.496H228.828V351.392H219.228ZM243.708 349.448H252.348V351.488H243.708V349.448ZM243.924 356.912H253.716V359H241.524V342.2H253.38V344.288H243.924V356.912ZM243.18 340.832L246.396 338.432H248.556L251.772 340.832H249.66L246.516 338.888H248.436L245.292 340.832H243.18ZM250.98 339.152L250.356 338.456C250.676 338.296 250.916 338.12 251.076 337.928C251.236 337.72 251.316 337.512 251.316 337.304C251.316 337.08 251.228 336.904 251.052 336.776C250.892 336.632 250.676 336.56 250.404 336.56C250.068 336.56 249.724 336.656 249.372 336.848L248.94 335.96C249.164 335.816 249.42 335.704 249.708 335.624C250.012 335.544 250.308 335.504 250.596 335.504C251.188 335.504 251.644 335.664 251.964 335.984C252.3 336.288 252.468 336.688 252.468 337.184C252.468 337.616 252.332 338.008 252.06 338.36C251.788 338.712 251.428 338.976 250.98 339.152ZM267.383 359V344.288H261.623V342.2H275.519V344.288H269.759V359H267.383ZM290.181 342.2H292.581V359H290.181V342.2ZM280.533 359H278.133V342.2H280.533V359ZM290.397 351.512H280.293V349.424H290.397V351.512ZM295.066 359L302.674 342.2H305.05L312.682 359H310.162L303.37 343.544H304.33L297.538 359H295.066ZM298.306 354.8L298.954 352.88H308.41L309.106 354.8H298.306ZM318.236 359V352.568L318.788 354.056L311.564 342.2H314.132L320.204 352.208H318.812L324.908 342.2H327.284L320.084 354.056L320.612 352.568V359H318.236ZM336.357 359V342.2H343.437C345.229 342.2 346.805 342.552 348.165 343.256C349.541 343.96 350.605 344.944 351.357 346.208C352.125 347.472 352.509 348.936 352.509 350.6C352.509 352.264 352.125 353.728 351.357 354.992C350.605 356.256 349.541 357.24 348.165 357.944C346.805 358.648 345.229 359 343.437 359H336.357ZM338.757 356.912H343.293C344.685 356.912 345.885 356.648 346.893 356.12C347.917 355.592 348.709 354.856 349.269 353.912C349.829 352.952 350.109 351.848 350.109 350.6C350.109 349.336 349.829 348.232 349.269 347.288C348.709 346.344 347.917 345.608 346.893 345.08C345.885 344.552 344.685 344.288 343.293 344.288H338.757V356.912ZM333.885 351.392V349.496H343.485V351.392H333.885ZM363.764 359.192C362.484 359.192 361.292 358.976 360.188 358.544C359.1 358.112 358.156 357.512 357.356 356.744C356.556 355.96 355.932 355.048 355.484 354.008C355.036 352.968 354.812 351.832 354.812 350.6C354.812 349.368 355.036 348.232 355.484 347.192C355.932 346.152 356.556 345.248 357.356 344.48C358.156 343.696 359.1 343.088 360.188 342.656C361.276 342.224 362.468 342.008 363.764 342.008C365.044 342.008 366.22 342.224 367.292 342.656C368.38 343.072 369.324 343.672 370.124 344.456C370.94 345.224 371.564 346.128 371.996 347.168C372.444 348.208 372.668 349.352 372.668 350.6C372.668 351.848 372.444 352.992 371.996 354.032C371.564 355.072 370.94 355.984 370.124 356.768C369.324 357.536 368.38 358.136 367.292 358.568C366.22 358.984 365.044 359.192 363.764 359.192ZM363.764 357.056C364.692 357.056 365.548 356.896 366.332 356.576C367.132 356.256 367.82 355.808 368.396 355.232C368.988 354.64 369.444 353.952 369.764 353.168C370.1 352.384 370.268 351.528 370.268 350.6C370.268 349.672 370.1 348.816 369.764 348.032C369.444 347.248 368.988 346.568 368.396 345.992C367.82 345.4 367.132 344.944 366.332 344.624C365.548 344.304 364.692 344.144 363.764 344.144C362.82 344.144 361.948 344.304 361.148 344.624C360.364 344.944 359.676 345.4 359.084 345.992C358.492 346.568 358.028 347.248 357.692 348.032C357.372 348.816 357.212 349.672 357.212 350.6C357.212 351.528 357.372 352.384 357.692 353.168C358.028 353.952 358.492 354.64 359.084 355.232C359.676 355.808 360.364 356.256 361.148 356.576C361.948 356.896 362.82 357.056 363.764 357.056ZM359.468 340.832L362.684 338.432H364.844L368.06 340.832H365.948L362.804 338.888H364.724L361.58 340.832H359.468ZM367.268 339.152L366.644 338.456C366.964 338.296 367.204 338.12 367.364 337.928C367.524 337.72 367.604 337.512 367.604 337.304C367.604 337.08 367.516 336.904 367.34 336.776C367.18 336.632 366.964 336.56 366.692 336.56C366.356 336.56 366.012 336.656 365.66 336.848L365.228 335.96C365.452 335.816 365.708 335.704 365.996 335.624C366.3 335.544 366.596 335.504 366.884 335.504C367.476 335.504 367.932 335.664 368.252 335.984C368.588 336.288 368.756 336.688 368.756 337.184C368.756 337.616 368.62 338.008 368.348 338.36C368.076 338.712 367.716 338.976 367.268 339.152ZM376.336 359V342.2H378.736V359H376.336ZM397.795 359.192C396.499 359.192 395.307 358.984 394.219 358.568C393.131 358.136 392.187 357.536 391.387 356.768C390.587 355.984 389.963 355.072 389.515 354.032C389.067 352.992 388.843 351.848 388.843 350.6C388.843 349.352 389.067 348.208 389.515 347.168C389.963 346.128 390.587 345.224 391.387 344.456C392.203 343.672 393.155 343.072 394.243 342.656C395.331 342.224 396.531 342.008 397.843 342.008C399.171 342.008 400.387 342.224 401.491 342.656C402.595 343.088 403.531 343.736 404.299 344.6L402.811 346.088C402.123 345.416 401.371 344.928 400.555 344.624C399.755 344.304 398.883 344.144 397.939 344.144C396.979 344.144 396.083 344.304 395.251 344.624C394.435 344.944 393.723 345.392 393.115 345.968C392.523 346.544 392.059 347.232 391.723 348.032C391.403 348.816 391.243 349.672 391.243 350.6C391.243 351.512 391.403 352.368 391.723 353.168C392.059 353.952 392.523 354.64 393.115 355.232C393.723 355.808 394.435 356.256 395.251 356.576C396.067 356.896 396.955 357.056 397.915 357.056C398.811 357.056 399.667 356.92 400.483 356.648C401.315 356.36 402.083 355.888 402.787 355.232L404.155 357.056C403.323 357.76 402.347 358.296 401.227 358.664C400.123 359.016 398.979 359.192 397.795 359.192ZM401.851 356.744V350.504H404.155V357.056L401.851 356.744ZM416.334 359.192C415.054 359.192 413.862 358.976 412.758 358.544C411.67 358.112 410.726 357.512 409.926 356.744C409.126 355.96 408.502 355.048 408.054 354.008C407.606 352.968 407.382 351.832 407.382 350.6C407.382 349.368 407.606 348.232 408.054 347.192C408.502 346.152 409.126 345.248 409.926 344.48C410.726 343.696 411.67 343.088 412.758 342.656C413.846 342.224 415.038 342.008 416.334 342.008C417.614 342.008 418.79 342.224 419.862 342.656C420.95 343.072 421.894 343.672 422.694 344.456C423.51 345.224 424.134 346.128 424.566 347.168C425.014 348.208 425.238 349.352 425.238 350.6C425.238 351.848 425.014 352.992 424.566 354.032C424.134 355.072 423.51 355.984 422.694 356.768C421.894 357.536 420.95 358.136 419.862 358.568C418.79 358.984 417.614 359.192 416.334 359.192ZM416.334 357.056C417.262 357.056 418.118 356.896 418.902 356.576C419.702 356.256 420.39 355.808 420.966 355.232C421.558 354.64 422.014 353.952 422.334 353.168C422.67 352.384 422.838 351.528 422.838 350.6C422.838 349.672 422.67 348.816 422.334 348.032C422.014 347.248 421.558 346.568 420.966 345.992C420.39 345.4 419.702 344.944 418.902 344.624C418.118 344.304 417.262 344.144 416.334 344.144C415.39 344.144 414.518 344.304 413.718 344.624C412.934 344.944 412.246 345.4 411.654 345.992C411.062 346.568 410.598 347.248 410.262 348.032C409.942 348.816 409.782 349.672 409.782 350.6C409.782 351.528 409.942 352.384 410.262 353.168C410.598 353.952 411.062 354.64 411.654 355.232C412.246 355.808 412.934 356.256 413.718 356.576C414.518 356.896 415.39 357.056 416.334 357.056ZM414.534 340.832L417.798 337.712H420.726L416.694 340.832H414.534ZM436.419 359.192C435.139 359.192 433.955 358.984 432.867 358.568C431.795 358.136 430.859 357.536 430.059 356.768C429.275 355.984 428.659 355.072 428.211 354.032C427.763 352.992 427.539 351.848 427.539 350.6C427.539 349.352 427.763 348.208 428.211 347.168C428.659 346.128 429.283 345.224 430.083 344.456C430.883 343.672 431.819 343.072 432.891 342.656C433.979 342.224 435.163 342.008 436.443 342.008C437.739 342.008 438.931 342.232 440.019 342.68C441.123 343.112 442.059 343.76 442.827 344.624L441.267 346.136C440.627 345.464 439.907 344.968 439.107 344.648C438.307 344.312 437.451 344.144 436.539 344.144C435.595 344.144 434.715 344.304 433.899 344.624C433.099 344.944 432.403 345.392 431.811 345.968C431.219 346.544 430.755 347.232 430.419 348.032C430.099 348.816 429.939 349.672 429.939 350.6C429.939 351.528 430.099 352.392 430.419 353.192C430.755 353.976 431.219 354.656 431.811 355.232C432.403 355.808 433.099 356.256 433.899 356.576C434.715 356.896 435.595 357.056 436.539 357.056C437.451 357.056 438.307 356.896 439.107 356.576C439.907 356.24 440.627 355.728 441.267 355.04L442.827 356.552C442.059 357.416 441.123 358.072 440.019 358.52C438.931 358.968 437.731 359.192 436.419 359.192ZM452.696 359V342.2H454.664L465.776 356H464.744V342.2H467.144V359H465.176L454.064 345.2H455.096V359H452.696ZM484.22 342.2H486.62V359H484.22V342.2ZM474.572 359H472.172V342.2H474.572V359ZM484.436 351.512H474.332V349.424H484.436V351.512ZM491.649 359V342.2H494.049V359H491.649ZM492.489 340.832L488.457 337.712H491.385L494.649 340.832H492.489ZM499.079 359V342.2H501.047L512.159 356H511.127V342.2H513.527V359H511.559L500.447 345.2H501.479V359H499.079Z" fill="white"/>
 <path d="M168.947 39.54H140.074C124.765 39.5578 110.087 46.0134 99.2615 57.4907C88.4359 68.9679 82.3468 84.5292 82.3301 100.76V192.591C82.3468 208.822 88.4359 224.384 99.2615 235.861C110.087 247.338 124.765 253.794 140.074 253.811H168.947C184.256 253.794 198.934 247.338 209.76 235.861C220.585 224.384 226.674 208.822 226.691 192.591V100.76C226.674 84.5292 220.585 68.9679 209.76 57.4907C198.934 46.0134 184.256 39.5578 168.947 39.54ZM212.255 100.76V123.718H161.729V54.8451H168.947C180.429 54.8578 191.438 59.6994 199.557 68.3074C207.676 76.9154 212.243 88.5868 212.255 100.76ZM140.074 54.8451H147.292V123.718H96.7662V100.76C96.7781 88.5868 101.345 76.9154 109.464 68.3074C117.583 59.6994 128.592 54.8578 140.074 54.8451ZM168.947 238.506H140.074C128.592 238.494 117.583 233.652 109.464 225.044C101.345 216.436 96.7781 204.765 96.7662 192.591V139.023H212.255V192.591C212.243 204.765 207.676 216.436 199.557 225.044C191.438 233.652 180.429 238.494 168.947 238.506Z" fill="white"/>
 <path d="M146.176 57.5857V122.537H99.6592V98.9182C99.6592 87.9561 103.471 77.443 110.256 69.6917C117.041 61.9404 126.243 57.5857 135.839 57.5857H146.176Z" fill="white" opacity="0.2"/>
 <path d="M437.237 155.591L429.228 164.069C429.054 164.253 428.865 164.384 428.662 164.462C428.459 164.539 428.241 164.577 428.009 164.574C427.777 164.574 427.559 164.535 427.356 164.458C427.153 164.381 426.964 164.251 426.79 164.069L418.737 155.545C418.417 155.207 418.258 154.792 418.258 154.301C418.258 153.809 418.432 153.379 418.78 153.011C419.099 152.673 419.506 152.504 419.999 152.504C420.492 152.504 420.899 152.673 421.218 153.011L426.268 158.356V134.027C426.268 133.505 426.435 133.067 426.769 132.713C427.103 132.359 427.517 132.182 428.009 132.184C428.502 132.184 428.916 132.361 429.25 132.715C429.585 133.068 429.751 133.506 429.75 134.027V158.356L434.843 152.965C435.162 152.627 435.554 152.458 436.019 152.458C436.483 152.458 436.889 152.642 437.237 153.011C437.557 153.348 437.716 153.779 437.716 154.301C437.716 154.823 437.557 155.253 437.237 155.591Z" fill="white"/>
 <rect y="119.676" width="54.6999" rx="7.5" x="400.659" height="58.1915" stroke="white" stroke-width="5"/>
 <path d="M397.465 236.043C395.971 236.043 394.543 235.819 393.181 235.371C391.818 234.904 390.745 234.307 389.961 233.579L390.997 231.395C391.743 232.048 392.695 232.59 393.853 233.019C395.01 233.448 396.214 233.663 397.465 233.663C398.603 233.663 399.527 233.532 400.237 233.271C400.946 233.01 401.469 232.655 401.805 232.207C402.141 231.74 402.309 231.218 402.309 230.639C402.309 229.967 402.085 229.426 401.637 229.015C401.207 228.604 400.638 228.278 399.929 228.035C399.238 227.774 398.473 227.55 397.633 227.363C396.793 227.176 395.943 226.962 395.085 226.719C394.245 226.458 393.47 226.131 392.761 225.739C392.07 225.347 391.51 224.824 391.081 224.171C390.651 223.499 390.437 222.64 390.437 221.595C390.437 220.587 390.698 219.663 391.221 218.823C391.762 217.964 392.583 217.283 393.685 216.779C394.805 216.256 396.223 215.995 397.941 215.995C399.079 215.995 400.209 216.144 401.329 216.443C402.449 216.742 403.419 217.171 404.24 217.731L403.317 219.971C402.477 219.411 401.59 219.01 400.657 218.767C399.723 218.506 398.818 218.375 397.941 218.375C396.839 218.375 395.934 218.515 395.225 218.795C394.515 219.075 393.993 219.448 393.657 219.915C393.339 220.382 393.181 220.904 393.181 221.483C393.181 222.174 393.395 222.724 393.825 223.135C394.273 223.546 394.842 223.872 395.533 224.115C396.242 224.358 397.017 224.582 397.857 224.787C398.697 224.974 399.537 225.188 400.377 225.431C401.235 225.674 402.01 225.991 402.701 226.383C403.41 226.775 403.979 227.298 404.409 227.951C404.838 228.604 405.053 229.444 405.053 230.471C405.053 231.46 404.782 232.384 404.24 233.243C403.699 234.083 402.859 234.764 401.721 235.287C400.601 235.791 399.182 236.043 397.465 236.043ZM416.619 235.987C415.387 235.987 414.258 235.707 413.231 235.147C412.223 234.568 411.411 233.719 410.795 232.599C410.198 231.479 409.899 230.079 409.899 228.399C409.899 226.719 410.188 225.319 410.767 224.199C411.364 223.079 412.167 222.239 413.175 221.679C414.202 221.119 415.35 220.839 416.619 220.839C418.075 220.839 419.363 221.156 420.483 221.791C421.603 222.426 422.49 223.312 423.143 224.451C423.796 225.571 424.123 226.887 424.123 228.399C424.123 229.911 423.796 231.236 423.143 232.375C422.49 233.514 421.603 234.4 420.483 235.035C419.363 235.67 418.075 235.987 416.619 235.987ZM408.751 241.251V220.979H411.327V224.983L411.159 228.427L411.439 231.871V241.251H408.751ZM416.395 233.635C417.347 233.635 418.196 233.42 418.943 232.991C419.708 232.562 420.306 231.955 420.735 231.171C421.183 230.368 421.407 229.444 421.407 228.399C421.407 227.335 421.183 226.42 420.735 225.655C420.306 224.871 419.708 224.264 418.943 223.835C418.196 223.406 417.347 223.191 416.395 223.191C415.462 223.191 414.612 223.406 413.847 223.835C413.1 224.264 412.503 224.871 412.055 225.655C411.626 226.42 411.411 227.335 411.411 228.399C411.411 229.444 411.626 230.368 412.055 231.171C412.503 231.955 413.1 232.562 413.847 232.991C414.612 233.42 415.462 233.635 416.395 233.635ZM436.912 235.819V232.683L436.772 232.095V226.747C436.772 225.608 436.436 224.731 435.764 224.115C435.111 223.48 434.122 223.163 432.796 223.163C431.919 223.163 431.06 223.312 430.22 223.611C429.38 223.891 428.671 224.274 428.092 224.759L426.972 222.743C427.738 222.127 428.652 221.66 429.716 221.343C430.799 221.007 431.928 220.839 433.104 220.839C435.139 220.839 436.707 221.334 437.808 222.323C438.91 223.312 439.46 224.824 439.46 226.859V235.819H436.912ZM432.04 235.987C430.939 235.987 429.968 235.8 429.128 235.427C428.307 235.054 427.672 234.54 427.224 233.887C426.776 233.215 426.552 232.459 426.552 231.619C426.552 230.816 426.739 230.088 427.112 229.435C427.504 228.782 428.13 228.259 428.988 227.867C429.866 227.475 431.042 227.279 432.516 227.279H437.22V229.211H432.628C431.284 229.211 430.379 229.435 429.912 229.883C429.446 230.331 429.212 230.872 429.212 231.507C429.212 232.235 429.502 232.823 430.08 233.271C430.659 233.7 431.462 233.915 432.488 233.915C433.496 233.915 434.374 233.691 435.12 233.243C435.886 232.795 436.436 232.142 436.772 231.283L437.304 233.131C436.95 234.008 436.324 234.708 435.428 235.231C434.532 235.735 433.403 235.987 432.04 235.987ZM450.903 235.987C449.391 235.987 448.037 235.66 446.843 235.007C445.667 234.354 444.743 233.458 444.071 232.319C443.399 231.18 443.063 229.874 443.063 228.399C443.063 226.924 443.399 225.618 444.071 224.479C444.743 223.34 445.667 222.454 446.843 221.819C448.037 221.166 449.391 220.839 450.903 220.839C452.247 220.839 453.441 221.11 454.487 221.651C455.551 222.174 456.372 222.958 456.951 224.003L454.907 225.319C454.421 224.591 453.824 224.059 453.115 223.723C452.424 223.368 451.677 223.191 450.875 223.191C449.904 223.191 449.036 223.406 448.271 223.835C447.505 224.264 446.899 224.871 446.451 225.655C446.003 226.42 445.779 227.335 445.779 228.399C445.779 229.463 446.003 230.387 446.451 231.171C446.899 231.955 447.505 232.562 448.271 232.991C449.036 233.42 449.904 233.635 450.875 233.635C451.677 233.635 452.424 233.467 453.115 233.131C453.824 232.776 454.421 232.235 454.907 231.507L456.951 232.795C456.372 233.822 455.551 234.615 454.487 235.175C453.441 235.716 452.247 235.987 450.903 235.987ZM466.82 235.987C465.233 235.987 463.833 235.66 462.62 235.007C461.425 234.354 460.492 233.458 459.82 232.319C459.167 231.18 458.84 229.874 458.84 228.399C458.84 226.924 459.157 225.618 459.792 224.479C460.445 223.34 461.332 222.454 462.452 221.819C463.591 221.166 464.869 220.839 466.288 220.839C467.725 220.839 468.995 221.156 470.096 221.791C471.197 222.426 472.056 223.322 472.672 224.479C473.307 225.618 473.624 226.952 473.624 228.483C473.624 228.595 473.615 228.726 473.596 228.875C473.596 229.024 473.587 229.164 473.568 229.295H460.94V227.363H472.168L471.076 228.035C471.095 227.083 470.899 226.234 470.488 225.487C470.077 224.74 469.508 224.162 468.78 223.751C468.071 223.322 467.24 223.107 466.288 223.107C465.355 223.107 464.524 223.322 463.796 223.751C463.068 224.162 462.499 224.75 462.088 225.515C461.677 226.262 461.472 227.12 461.472 228.091V228.539C461.472 229.528 461.696 230.415 462.144 231.199C462.611 231.964 463.255 232.562 464.076 232.991C464.897 233.42 465.84 233.635 466.904 233.635C467.781 233.635 468.575 233.486 469.284 233.187C470.012 232.888 470.647 232.44 471.188 231.843L472.672 233.579C472 234.363 471.16 234.96 470.152 235.371C469.163 235.782 468.052 235.987 466.82 235.987Z" fill="white"/>
 <rect y="197.311" width="201.391" rx="7.5" x="327.312" height="58.1915" stroke="white" stroke-width="5"/>
 <path d="M348.221 158.54L340.211 150.061C340.037 149.877 339.913 149.677 339.84 149.462C339.767 149.247 339.731 149.017 339.734 148.771C339.734 148.525 339.77 148.295 339.843 148.08C339.917 147.865 340.039 147.665 340.211 147.481L348.264 138.957C348.583 138.619 348.975 138.45 349.439 138.45C349.904 138.45 350.31 138.634 350.658 139.003C350.978 139.341 351.137 139.771 351.137 140.293C351.137 140.815 350.978 141.245 350.658 141.583L345.609 146.928H368.593C369.087 146.928 369.5 147.105 369.835 147.459C370.169 147.813 370.336 148.25 370.334 148.771C370.334 149.293 370.167 149.731 369.833 150.085C369.499 150.439 369.085 150.616 368.593 150.614H345.609L350.702 156.005C351.021 156.343 351.181 156.758 351.181 157.249C351.181 157.741 351.007 158.171 350.658 158.54C350.339 158.877 349.933 159.046 349.439 159.046C348.946 159.046 348.54 158.877 348.221 158.54Z" fill="white"/>
 <rect y="119.676" width="58.1915" rx="7.5" x="382.013" transform="rotate(90 382.013 119.676)" height="54.6999" stroke="white" stroke-width="5"/>
 <path d="M507.795 139.003L515.805 147.481C515.979 147.665 516.103 147.865 516.176 148.08C516.249 148.295 516.284 148.525 516.282 148.771C516.282 149.017 516.246 149.247 516.172 149.462C516.099 149.677 515.977 149.877 515.805 150.061L507.752 158.585C507.433 158.923 507.041 159.092 506.576 159.092C506.112 159.092 505.706 158.908 505.358 158.539C505.038 158.201 504.879 157.771 504.879 157.249C504.879 156.727 505.038 156.297 505.358 155.959L510.407 150.614H487.423C486.929 150.614 486.516 150.437 486.181 150.083C485.847 149.729 485.68 149.292 485.681 148.771C485.681 148.249 485.849 147.811 486.183 147.457C486.517 147.103 486.931 146.927 487.423 146.928H510.407L505.314 141.537C504.995 141.199 504.835 140.784 504.835 140.293C504.835 139.801 505.009 139.371 505.358 139.003C505.677 138.665 506.083 138.496 506.576 138.496C507.07 138.496 507.476 138.665 507.795 139.003Z" fill="white"/>
 <rect y="177.867" width="58.1915" rx="7.5" x="474.003" transform="rotate(-90 474.003 177.867)" height="54.6999" stroke="white" stroke-width="5"/>
 <path d="M418.78 64.3163L426.79 55.8381C426.964 55.6538 427.152 55.523 427.356 55.4455C427.559 55.3681 427.776 55.3307 428.009 55.3331C428.241 55.3331 428.458 55.3718 428.662 55.4492C428.865 55.5266 429.053 55.6563 429.227 55.8381L437.281 64.3624C437.6 64.7003 437.76 65.115 437.76 65.6065C437.76 66.098 437.585 66.528 437.237 66.8966C436.918 67.2345 436.512 67.4035 436.018 67.4035C435.525 67.4035 435.119 67.2345 434.799 66.8966L429.75 61.5517V85.8804C429.75 86.4026 429.583 86.8407 429.248 87.1946C428.914 87.5484 428.501 87.7248 428.009 87.7235C427.515 87.7235 427.101 87.5466 426.767 87.1927C426.433 86.8388 426.266 86.4014 426.267 85.8804V61.5517L421.174 66.9427C420.855 67.2806 420.463 67.4496 419.999 67.4496C419.534 67.4496 419.128 67.2653 418.78 66.8966C418.461 66.5587 418.301 66.1287 418.301 65.6065C418.301 65.0843 418.461 64.6542 418.78 64.3163Z" fill="white"/>
 <rect y="42.04" width="54.6999" rx="7.5" x="400.659" height="58.1915" stroke="white" stroke-width="5"/>
</svg>
